<svg version="1.0" xmlns="http://www.w3.org/2000/svg" width="14.77" height="12.44" viewBox="0 0 860.000000 787.000000" preserveAspectRatio="xMidYMid meet">
            <g transform="translate(0.000000,787.000000) scale(0.100000,-0.100000)" fill="#fff" stroke="none">
                <path d="M5850 7459 c-218 -20 -425 -81 -652 -195 -614 -306 -932 -869 -905
                -1599 6 -152 25 -314 48 -399 6 -21 8 -41 5 -44 -11 -11 -390 18 -561 43 -783
                112 -1531 390 -2278 846 -447 273 -846 616 -1027 884 l-34 49 -24 -52 c-32
                -71 -77 -255 -92 -375 -8 -65 -11 -171 -7 -315 4 -180 10 -237 31 -337 73
                -344 263 -752 562 -1207 57 -87 101 -158 99 -158 -3 0 -76 29 -163 65 -434
                177 -552 223 -552 217 0 -4 7 -43 15 -87 57 -298 214 -638 391 -841 64 -74
                209 -201 359 -314 179 -136 545 -370 752 -482 35 -18 63 -36 63 -40 0 -5 -152
                -9 -337 -9 -186 -1 -395 -4 -466 -8 l-127 -6 48 -75 c131 -203 378 -463 547
                -575 169 -112 355 -206 634 -320 94 -38 409 -152 469 -170 12 -3 22 -9 22 -13
                0 -15 -376 -257 -602 -388 -167 -96 -396 -211 -518 -258 -244 -97 -690 -185
                -1124 -222 -98 -8 -96 -10 89 -99 656 -318 1488 -480 2285 -445 1093 49 2022
                365 2805 956 447 336 894 819 1245 1344 418 626 682 1413 775 2315 20 200 38
                578 29 640 l-6 49 310 306 c170 168 315 316 322 329 l12 24 -78 -8 c-44 -4
                -173 -17 -289 -30 -115 -13 -211 -22 -213 -20 -2 1 82 155 186 341 105 187
                189 340 188 341 -1 2 -81 -31 -177 -73 -162 -70 -427 -164 -544 -194 l-50 -12
                -93 91 c-319 310 -707 496 -1107 530 -132 12 -130 12 -265 0z"/>
            </g>
        </svg>